<svg width="203" height="203" viewBox="0 0 203 203" fill="none" xmlns="http://www.w3.org/2000/svg">
<g clip-path="url(#clip0_2006_9)">
<mask id="mask0_2006_9" style="mask-type:luminance" maskUnits="userSpaceOnUse" x="8" y="0" width="187" height="203">
<path d="M8.8728 0H194.009V203H8.8728V0Z" fill="white"/>
</mask>
<g mask="url(#mask0_2006_9)">
<path fill-rule="evenodd" clip-rule="evenodd" d="M25.8255 47.5655C43.9602 33.3766 60.7225 25.4871 83.1032 19.4013C100.675 14.6203 102.321 14.6203 119.893 19.4013C142.273 25.4892 159.036 33.3766 177.17 47.5655C180.27 54.4231 176.781 77.73 175.354 85.3362C172.493 100.589 167.213 115.581 159.763 129.37L171.334 140.941C180.757 124.64 187.382 106.651 190.835 88.2395C194.736 67.4235 196.699 42.9282 187.733 35.8359C167.955 20.1964 149.645 11.1714 124.027 4.20383C103.416 -1.40193 99.5822 -1.40193 78.9713 4.20383C53.3532 11.1714 35.043 20.1964 15.2653 35.8359C6.29945 42.9282 8.26179 67.4235 12.1653 88.2395C21.442 137.719 53.6048 184.149 101.498 203C121.464 195.142 138.694 182.489 152.673 166.822L141.521 155.669C130.4 168.302 116.953 178.771 101.498 185.885C61.9489 167.678 35.5484 127.499 27.6419 85.3362C26.2167 77.73 22.7255 54.4231 25.8255 47.5655Z" fill="#7ED957"/>
</g>
<path fill-rule="evenodd" clip-rule="evenodd" d="M101.498 177.145V148.112C113.773 148.112 125.105 144.071 134.234 137.247L162.051 165.064C171.611 174.624 183.324 164.064 172.32 153.06L145.369 126.112C152.193 116.981 156.234 105.651 156.234 93.3758C156.234 63.1457 131.728 38.6398 101.498 38.6398V23.6897C97.3893 23.6897 93.2785 24.7935 85.1712 26.999C64.6724 32.5751 49.2804 39.6252 32.7824 52.1456C31.4481 59.885 34.1146 77.1315 35.3812 83.8855C42.5898 122.327 66.1124 159.327 101.498 177.145ZM101.498 132.362C79.9672 132.362 62.5113 114.906 62.5113 93.3758C62.5113 71.843 79.9672 54.3871 101.498 54.3871C123.031 54.3871 140.484 71.843 140.484 93.3758C140.484 114.906 123.031 132.362 101.498 132.362Z" fill="#7ED957"/>
</g>
<defs>
<clipPath id="clip0_2006_9">
<rect width="203" height="203" fill="white"/>
</clipPath>
</defs>
</svg>
