<svg width="500" height="500" viewBox="0 0 500 500" fill="none" xmlns="http://www.w3.org/2000/svg">
<g clip-path="url(#clip0_2006_28)">
<mask id="mask0_2006_28" style="mask-type:luminance" maskUnits="userSpaceOnUse" x="21" y="0" width="457" height="500">
<path d="M21.8542 0H477.854V500H21.8542V0Z" fill="white"/>
</mask>
<g mask="url(#mask0_2006_28)">
<path fill-rule="evenodd" clip-rule="evenodd" d="M63.6094 117.156C108.276 82.2083 149.562 62.776 204.687 47.7865C247.969 36.0104 252.021 36.0104 295.302 47.7865C350.427 62.7812 391.714 82.2083 436.38 117.156C444.016 134.047 435.422 191.453 431.906 210.188C424.859 247.755 411.854 284.682 393.505 318.646L422.005 347.146C445.214 306.995 461.531 262.688 470.036 217.339C479.646 166.068 484.479 105.734 462.396 88.2656C413.682 49.7448 368.583 27.5156 305.484 10.3542C254.719 -3.45313 245.276 -3.45313 194.51 10.3542C131.411 27.5156 86.3125 49.7448 37.599 88.2656C15.5156 105.734 20.349 166.068 29.9635 217.339C52.8125 339.208 132.031 453.568 249.995 500C299.172 480.646 341.609 449.479 376.042 410.891L348.573 383.422C321.182 414.536 288.062 440.323 249.995 457.844C152.583 413 87.5573 314.036 68.0833 210.188C64.5729 191.453 55.974 134.047 63.6094 117.156Z" fill="white"/>
</g>
<path fill-rule="evenodd" clip-rule="evenodd" d="M249.995 436.318V364.807C280.229 364.807 308.141 354.854 330.625 338.047L399.141 406.563C422.687 430.109 451.536 404.099 424.432 376.995L358.052 310.62C374.859 288.13 384.812 260.224 384.812 229.99C384.812 155.531 324.453 95.1719 249.995 95.1719V58.349C239.875 58.349 229.75 61.0677 209.781 66.5C159.292 80.2344 121.38 97.599 80.7448 128.437C77.4583 147.5 84.026 189.979 87.1458 206.615C104.901 301.297 162.839 392.432 249.995 436.318ZM249.995 326.016C196.964 326.016 153.969 283.021 153.969 229.99C153.969 176.953 196.964 133.958 249.995 133.958C303.031 133.958 346.021 176.953 346.021 229.99C346.021 283.021 303.031 326.016 249.995 326.016Z" fill="white"/>
</g>
<defs>
<clipPath id="clip0_2006_28">
<rect width="500" height="500" fill="white"/>
</clipPath>
</defs>
</svg>
