<svg width="855" height="203" viewBox="0 0 855 203" fill="none" xmlns="http://www.w3.org/2000/svg">
<path d="M222.2 133.272H267.512V143H210.168C209.912 141.464 209.784 139.971 209.784 138.52C209.784 125.208 218.787 113.133 236.792 102.296C242.68 98.456 247.117 94.9147 250.104 91.672C253.091 88.4293 254.541 85.0587 254.456 81.56C254.285 77.3787 252.621 74.1787 249.464 71.96C246.307 69.7413 241.784 68.632 235.896 68.632C227.448 68.632 219.853 70.04 213.112 72.856L210.424 64.408C218.104 60.056 227.235 57.88 237.816 57.88C246.776 57.88 253.773 59.8853 258.808 63.896C263.928 67.9067 266.531 73.4533 266.616 80.536C266.701 87.5333 264.525 93.2933 260.088 97.816C255.651 102.253 248.397 107.245 238.328 112.792C233.635 116.205 229.795 119.747 226.808 123.416C223.821 127 222.285 130.157 222.2 132.888V133.272ZM366.886 70.04H330.534V97.56H358.822V108.312H330.534V143H318.502V59.16H366.886V70.04ZM399.411 79.256C406.238 79.256 411.87 81.2187 416.307 85.144C420.744 89.0693 422.963 94.0187 422.963 99.992V136.856C420.574 138.392 416.35 140.013 410.291 141.72C404.318 143.427 398.984 144.28 394.291 144.28C387.55 144.28 382.046 142.573 377.779 139.16C373.512 135.747 371.379 131.139 371.379 125.336C371.379 112.28 380.424 105.752 398.515 105.752C401.587 105.752 405.896 106.051 411.443 106.648V101.912C411.443 98.1573 410.163 95.0853 407.603 92.696C405.128 90.3067 401.331 89.112 396.211 89.112C390.152 89.112 383.582 90.0933 376.499 92.056L375.091 82.968C383.283 80.4933 391.39 79.256 399.411 79.256ZM382.003 125.336C382.003 128.749 383.24 131.395 385.715 133.272C388.275 135.149 391.475 136.088 395.315 136.088C400.606 136.088 405.982 134.723 411.443 131.992V114.328C409.054 113.816 405.384 113.56 400.435 113.56C388.147 113.56 382.003 117.485 382.003 125.336ZM461.827 143.896C458.499 143.896 454.616 143.384 450.179 142.36C445.827 141.251 442.115 139.843 439.043 138.136L442.371 130.2C448.6 132.845 454.83 134.168 461.059 134.168C464.558 134.168 467.8 133.485 470.787 132.12C473.859 130.755 475.395 128.451 475.395 125.208C475.395 124.184 475.267 123.331 475.011 122.648C474.755 121.88 474.2 121.197 473.347 120.6C472.579 120.003 471.896 119.533 471.299 119.192C470.702 118.765 469.592 118.339 467.971 117.912C466.435 117.485 465.283 117.187 464.515 117.016C463.747 116.845 462.296 116.547 460.163 116.12C452.995 114.584 447.619 112.536 444.035 109.976C440.451 107.331 438.659 103.32 438.659 97.944C438.659 91.8 440.963 87.1493 445.571 83.992C450.179 80.7493 456.28 79.128 463.875 79.128C471.043 79.128 477.87 80.8773 484.355 84.376L480.899 92.44C475.694 89.88 470.403 88.5573 465.027 88.472C460.248 88.3867 456.408 89.1547 453.507 90.776C450.606 92.312 449.155 94.488 449.155 97.304C449.155 99.9493 450.179 101.827 452.227 102.936C454.275 104.045 457.646 105.155 462.339 106.264C462.851 106.349 463.235 106.435 463.491 106.52C471.854 108.483 477.742 110.659 481.155 113.048C484.654 115.437 486.403 119.235 486.403 124.44C486.403 127.341 485.806 129.944 484.611 132.248C483.502 134.552 482.051 136.429 480.259 137.88C478.552 139.245 476.547 140.397 474.243 141.336C472.024 142.275 469.891 142.915 467.843 143.256C465.795 143.683 463.79 143.896 461.827 143.896ZM541.893 90.776H518.213C518.042 103.747 517.957 112.835 517.957 118.04C517.957 123.843 518.938 127.896 520.901 130.2C522.949 132.419 525.978 133.528 529.989 133.528C532.634 133.528 535.237 133.101 537.797 132.248L539.717 140.952C535.621 142.829 531.141 143.768 526.277 143.768C520.048 143.768 515.184 142.019 511.685 138.52C508.272 135.021 506.565 128.835 506.565 119.96C506.565 116.205 506.608 111 506.693 104.344C506.864 97.688 506.949 93.1653 506.949 90.776H493.893V81.56H506.949V66.712H518.213V81.56H541.893V90.776ZM643.783 143L634.055 116.12H600.263L590.791 143H579.911L609.607 59.16H624.711L655.687 143H643.783ZM603.463 107.16H630.855L617.287 69.656H616.647L603.463 107.16ZM691.542 144.024C674.902 144.024 666.582 136.301 666.582 120.856C666.582 118.296 666.625 113.773 666.71 107.288C666.795 100.717 666.881 94.6587 666.966 89.112C667.051 83.48 667.094 80.536 667.094 80.28H678.742C678.742 80.6213 678.699 83.3093 678.614 88.344C678.614 93.2933 678.571 98.84 678.486 104.984C678.486 111.043 678.486 115.523 678.486 118.424C678.486 128.664 683.094 133.784 692.31 133.784C697.942 133.784 702.806 132.888 706.902 131.096L707.286 80.28H719.062L718.166 138.776C709.547 142.275 700.673 144.024 691.542 144.024ZM776.643 90.776H752.963C752.792 103.747 752.707 112.835 752.707 118.04C752.707 123.843 753.688 127.896 755.651 130.2C757.699 132.419 760.728 133.528 764.739 133.528C767.384 133.528 769.987 133.101 772.547 132.248L774.467 140.952C770.371 142.829 765.891 143.768 761.027 143.768C754.798 143.768 749.934 142.019 746.435 138.52C743.022 135.021 741.315 128.835 741.315 119.96C741.315 116.205 741.358 111 741.443 104.344C741.614 97.688 741.699 93.1653 741.699 90.776H728.643V81.56H741.699V66.712H752.963V81.56H776.643V90.776ZM822.74 80.024C829.737 80.024 835.156 81.6453 838.996 84.888C842.921 88.0453 844.884 92.5253 844.884 98.328C844.884 103.021 844.756 111.512 844.5 123.8C844.329 136.003 844.244 142.403 844.244 143H832.468C832.468 142.829 832.511 139.971 832.596 134.424C832.681 128.877 832.767 122.733 832.852 115.992C833.023 109.251 833.108 104.387 833.108 101.4C833.108 93.976 828.244 90.264 818.516 90.264C812.628 90.264 807.337 91.672 802.644 94.488L802.516 143H791.252L790.868 47H802.772L802.644 84.248C810.068 81.432 816.767 80.024 822.74 80.024Z" fill="#7ED957"/>
<g clip-path="url(#clip0_2006_37)">
<mask id="mask0_2006_37" style="mask-type:luminance" maskUnits="userSpaceOnUse" x="8" y="0" width="187" height="203">
<path d="M8.8728 0H194.009V203H8.8728V0Z" fill="white"/>
</mask>
<g mask="url(#mask0_2006_37)">
<path fill-rule="evenodd" clip-rule="evenodd" d="M25.8255 47.5655C43.9602 33.3766 60.7225 25.4871 83.1032 19.4013C100.675 14.6203 102.321 14.6203 119.893 19.4013C142.273 25.4892 159.036 33.3766 177.17 47.5655C180.27 54.4231 176.781 77.73 175.354 85.3362C172.493 100.589 167.213 115.581 159.763 129.37L171.334 140.941C180.757 124.64 187.382 106.651 190.835 88.2395C194.736 67.4235 196.699 42.9282 187.733 35.8359C167.955 20.1964 149.645 11.1714 124.027 4.20383C103.416 -1.40193 99.5822 -1.40193 78.9713 4.20383C53.3532 11.1714 35.043 20.1964 15.2653 35.8359C6.29945 42.9282 8.26179 67.4235 12.1653 88.2395C21.442 137.719 53.6048 184.149 101.498 203C121.464 195.142 138.694 182.489 152.673 166.822L141.521 155.669C130.4 168.302 116.953 178.771 101.498 185.885C61.9489 167.678 35.5484 127.499 27.6419 85.3362C26.2167 77.73 22.7255 54.4231 25.8255 47.5655Z" fill="#7ED957"/>
</g>
<path fill-rule="evenodd" clip-rule="evenodd" d="M101.498 177.145V148.112C113.773 148.112 125.105 144.071 134.234 137.247L162.051 165.064C171.611 174.624 183.324 164.064 172.32 153.06L145.369 126.112C152.193 116.981 156.234 105.651 156.234 93.3758C156.234 63.1457 131.728 38.6398 101.498 38.6398V23.6897C97.3893 23.6897 93.2785 24.7935 85.1712 26.999C64.6724 32.5751 49.2804 39.6252 32.7824 52.1456C31.4481 59.885 34.1146 77.1315 35.3812 83.8855C42.5898 122.327 66.1124 159.327 101.498 177.145ZM101.498 132.362C79.9672 132.362 62.5113 114.906 62.5113 93.3758C62.5113 71.843 79.9672 54.3871 101.498 54.3871C123.031 54.3871 140.484 71.843 140.484 93.3758C140.484 114.906 123.031 132.362 101.498 132.362Z" fill="#7ED957"/>
</g>
<defs>
<clipPath id="clip0_2006_37">
<rect width="203" height="203" fill="white"/>
</clipPath>
</defs>
</svg>
